<?xml version="1.0" encoding="UTF-8" standalone="no"?>
<svg
   xmlns:dc="http://purl.org/dc/elements/1.1/"
   xmlns:cc="http://creativecommons.org/ns#"
   xmlns:rdf="http://www.w3.org/1999/02/22-rdf-syntax-ns#"
   xmlns:svg="http://www.w3.org/2000/svg"
   xmlns="http://www.w3.org/2000/svg"
   xmlns:sodipodi="http://sodipodi.sourceforge.net/DTD/sodipodi-0.dtd"
   xmlns:inkscape="http://www.inkscape.org/namespaces/inkscape"
   xml:space="preserve"
   width="128px"
   height="128px"
   version="1.1"
   style="shape-rendering:geometricPrecision; text-rendering:geometricPrecision; image-rendering:optimizeQuality; fill-rule:evenodd; clip-rule:evenodd"
   viewBox="0 0 67 67"
   id="svg17"
   sodipodi:docname="add-document.svg"
   inkscape:version="1.0.1 (1.0.1+r74)"><metadata
   id="metadata21"><rdf:RDF><cc:Work
       rdf:about=""><dc:format>image/svg+xml</dc:format><dc:type
         rdf:resource="http://purl.org/dc/dcmitype/StillImage" /></cc:Work></rdf:RDF></metadata><sodipodi:namedview
   pagecolor="#ffffff"
   bordercolor="#666666"
   borderopacity="1"
   objecttolerance="10"
   gridtolerance="10"
   guidetolerance="10"
   inkscape:pageopacity="0"
   inkscape:pageshadow="2"
   inkscape:window-width="1366"
   inkscape:window-height="707"
   id="namedview19"
   showgrid="false"
   inkscape:zoom="4.3125"
   inkscape:cx="64"
   inkscape:cy="64"
   inkscape:window-x="0"
   inkscape:window-y="0"
   inkscape:window-maximized="1"
   inkscape:current-layer="Layer_x0020_1" />
 <defs
   id="defs4">
  <style
   type="text/css"
   id="style2">
   <![CDATA[
    .fil0 {fill:none}
    .fil2 {fill:#00C851}
    .fil1 {fill:#4285F4}
   ]]>
  </style>
 </defs>
 <g
   id="Layer_x0020_1">
  <metadata
   id="CorelCorpID_0Corel-Layer" />
  <g
   id="_746564432">
   <rect
   class="fil0"
   width="66.9359"
   height="66.9359"
   id="rect7" />
   <g
   id="g13">
    <path
   class="fil1"
   d="M3 40l14 0c0,5 4,9 10,9l7 0 0 7 -31 0c-2,0 -3,-2 -3,-4l0 -9c0,-1 1,-3 3,-3zm57 9l0 3c0,2 -1,4 -3,4l-3 0 0 -7 6 0zm-56 -6l6 0 0 10 -6 0 0 -10zm0 -36l6 0 0 10 -6 0 0 -10zm0 18l6 0 0 10 -6 0 0 -10zm-1 -21l54 0c2,0 3,2 3,3l0 9c0,2 -1,4 -3,4l-4 0c-1,-5 -5,-8 -9,-8 -5,0 -8,3 -10,8l-31 0c-2,0 -3,-2 -3,-4l0 -9c0,-1 1,-3 3,-3zm0 18l31 0 0 8 -7 0c-5,0 -9,3 -10,8l-14 0c-2,0 -3,-2 -3,-4l0 -9c0,-1 1,-3 3,-3zm51 0l3 0c2,0 3,2 3,3l0 5 -6 0 0 -8z"
   id="path9"
   style="fill:#5766da;fill-opacity:1" />
    <path
   class="fil2"
   d="M38 45l-11 0c-4,0 -6,-2 -6,-5 0,-4 2,-6 6,-6l11 0 0 -12c0,-3 3,-6 6,-6 3,0 6,3 6,6l0 12 11 0c3,0 6,2 6,6 0,3 -3,5 -6,5l-11 0 0 12c0,3 -3,6 -6,6 -3,0 -6,-3 -6,-6l0 -12z"
   id="path11" />
   </g>
  </g>
 </g>
</svg>
