<?xml version="1.0" encoding="UTF-8" standalone="no"?>
<svg
   xmlns:dc="http://purl.org/dc/elements/1.1/"
   xmlns:cc="http://creativecommons.org/ns#"
   xmlns:rdf="http://www.w3.org/1999/02/22-rdf-syntax-ns#"
   xmlns:svg="http://www.w3.org/2000/svg"
   xmlns="http://www.w3.org/2000/svg"
   xmlns:sodipodi="http://sodipodi.sourceforge.net/DTD/sodipodi-0.dtd"
   xmlns:inkscape="http://www.inkscape.org/namespaces/inkscape"
   xml:space="preserve"
   width="128px"
   height="128px"
   version="1.1"
   style="shape-rendering:geometricPrecision; text-rendering:geometricPrecision; image-rendering:optimizeQuality; fill-rule:evenodd; clip-rule:evenodd"
   viewBox="0 0 3336290 3336290"
   id="svg14"
   sodipodi:docname="detail-document.svg"
   inkscape:version="1.0.1 (1.0.1+r74)"><metadata
   id="metadata18"><rdf:RDF><cc:Work
       rdf:about=""><dc:format>image/svg+xml</dc:format><dc:type
         rdf:resource="http://purl.org/dc/dcmitype/StillImage" /></cc:Work></rdf:RDF></metadata><sodipodi:namedview
   pagecolor="#ffffff"
   bordercolor="#666666"
   borderopacity="1"
   objecttolerance="10"
   gridtolerance="10"
   guidetolerance="10"
   inkscape:pageopacity="0"
   inkscape:pageshadow="2"
   inkscape:window-width="1366"
   inkscape:window-height="707"
   id="namedview16"
   showgrid="false"
   inkscape:zoom="4.3125"
   inkscape:cx="21.681159"
   inkscape:cy="64"
   inkscape:window-x="0"
   inkscape:window-y="0"
   inkscape:window-maximized="1"
   inkscape:current-layer="svg14" />
 <defs
   id="defs4">
  <style
   type="text/css"
   id="style2">
   <![CDATA[
    .fil0 {fill:none}
    .fil1 {fill:#4285F4}
    .fil2 {fill:#FF4444}
   ]]>
  </style>
 </defs>
 <g
   id="Layer_x0020_1">
  <metadata
   id="CorelCorpID_0Corel-Layer" />
  <rect
   class="fil0"
   width="3336290"
   height="3336290"
   id="rect7" />
  <path
   class="fil1"
   d="M157115 2025463l807298 0c869,117299 16434,234520 45617,343451 41341,154297 111884,296937 205433,422486l-1058348 0c-86408,0 -157105,-70697 -157105,-157105l0 -451726c0,-86418 70697,-157106 157105,-157106zm63730 147291l265004 0 0 471346 -265004 0 0 -471346zm0 -1806808l265004 0 0 471345 -265004 0 0 -471345zm0 903404l265004 0 0 471355 -265004 0 0 -471355zm-63730 -1050696l2711246 0c86418,0 157105,70688 157105,157106l0 451726c0,56164 -29867,105670 -74499,133463 -13906,-8965 -27986,-17699 -42249,-26172 -297014,-176406 -652895,-233168 -987892,-143412 -144686,38765 -290008,105661 -418037,193227l-1345674 0c-86408,0 -157105,-70698 -157105,-157106l0 -451726c0,-86418 70697,-157106 157105,-157106zm0 903405l650009 0c-16260,15691 -30485,33737 -42065,53800 -46591,80753 -43532,181250 7807,259011l215547 326448c-8154,41525 -14195,83889 -18181,126678l-813117 0c-86408,0 -157105,-70688 -157105,-157105l0 -451736c0,-86408 70697,-157096 157105,-157096z"
   id="path9"
   style="fill:#5766da;fill-opacity:1" />
  <path
   class="fil2"
   d="M3301154 1755006c-151200,-564286 -762300,-917870 -1327493,-766438 -193062,51734 -383548,162075 -513845,296965l-478727 -28748c-16000,-965 -31190,7200 -39190,21096 -8067,13954 -7469,31189 1341,44497l264243 400213c-51687,180276 -51976,400417 -251,593479 151238,564421 762366,917850 1327492,766419 564431,-151238 917861,-762347 766430,-1327483zm-407288 -227551c0,-34876 28295,-63171 63171,-63171 34866,0 63170,28304 63170,63171 0,34866 -28294,63179 -63170,63179 -34876,0 -63171,-28304 -63171,-63179zm-388787 959655l-50181 0 0 -652277c0,-27715 -22456,-50181 -50172,-50181l-401410 0c-27706,0 -50171,22466 -50171,50181l0 200695c0,27716 22465,50182 50171,50182l50181 0 0 401400 -50181 0c-27706,0 -50171,22456 -50171,50171l0 200706c0,27715 22465,50171 50171,50171l501763 0c27705,0 50171,-22456 50171,-50171l0 -200706c0,-27715 -22466,-50171 -50171,-50171l0 0zm-250886 -802801c110668,0 200705,-90036 200705,-200695 0,-110669 -90037,-200705 -200705,-200705 -110659,0 -200696,90036 -200696,200705 0,110659 90037,200695 200696,200695zm809025 351219c0,-117066 -25342,-230254 -75687,-335914 -14986,-31459 -1592,-69250 29868,-84217 31430,-14968 69201,-1583 84188,29848 58480,122731 87981,254322 87981,390283 0,61048 -6070,122182 -18287,181994 -5993,29394 -31894,50557 -61858,50557 -4265,0 -8521,-444 -12700,-1303 -34113,-6986 -56212,-40395 -49245,-74518 10519,-51504 15740,-104165 15740,-156730z"
   id="path11" />
 </g>
</svg>
