<?xml version="1.0" encoding="UTF-8" standalone="no"?>
<svg
   xmlns:dc="http://purl.org/dc/elements/1.1/"
   xmlns:cc="http://creativecommons.org/ns#"
   xmlns:rdf="http://www.w3.org/1999/02/22-rdf-syntax-ns#"
   xmlns:svg="http://www.w3.org/2000/svg"
   xmlns="http://www.w3.org/2000/svg"
   xmlns:sodipodi="http://sodipodi.sourceforge.net/DTD/sodipodi-0.dtd"
   xmlns:inkscape="http://www.inkscape.org/namespaces/inkscape"
   xml:space="preserve"
   width="128px"
   height="128px"
   version="1.1"
   style="shape-rendering:geometricPrecision; text-rendering:geometricPrecision; image-rendering:optimizeQuality; fill-rule:evenodd; clip-rule:evenodd"
   viewBox="0 0 43 43"
   id="svg17"
   sodipodi:docname="filter-document.svg"
   inkscape:version="1.0.1 (1.0.1+r74)"><metadata
   id="metadata21"><rdf:RDF><cc:Work
       rdf:about=""><dc:format>image/svg+xml</dc:format><dc:type
         rdf:resource="http://purl.org/dc/dcmitype/StillImage" /></cc:Work></rdf:RDF></metadata><sodipodi:namedview
   pagecolor="#ffffff"
   bordercolor="#666666"
   borderopacity="1"
   objecttolerance="10"
   gridtolerance="10"
   guidetolerance="10"
   inkscape:pageopacity="0"
   inkscape:pageshadow="2"
   inkscape:window-width="1366"
   inkscape:window-height="707"
   id="namedview19"
   showgrid="false"
   inkscape:zoom="4.3125"
   inkscape:cx="64"
   inkscape:cy="64"
   inkscape:window-x="0"
   inkscape:window-y="0"
   inkscape:window-maximized="1"
   inkscape:current-layer="svg17" />
 <defs
   id="defs4">
  <style
   type="text/css"
   id="style2">
   <![CDATA[
    .fil0 {fill:none}
    .fil1 {fill:#4285F4}
    .fil2 {fill:#999999}
   ]]>
  </style>
 </defs>
 <g
   id="Layer_x0020_1">
  <metadata
   id="CorelCorpID_0Corel-Layer" />
  <g
   id="_787894208">
   <rect
   class="fil0"
   width="42.6779"
   height="42.6779"
   id="rect7" />
   <g
   id="g13">
    <path
   class="fil1"
   d="M2 26l17 0 2 3c0,0 0,1 0,1 0,1 0,2 0,3 0,1 0,2 0,3l-19 0c-1,0 -2,-1 -2,-2l0 -6c0,-1 1,-2 2,-2zm35 0c1,0 2,1 2,2l0 6c0,1 -1,2 -2,2l-3 0c1,-1 1,-1 1,-2 0,-1 -1,-4 0,-5l2 -3zm-34 2l3 0 0 6 -3 0 0 -6zm0 -23l3 0 0 6 -3 0 0 -6zm0 11l3 0 0 6 -3 0 0 -6zm-1 -13l35 0c1,0 2,1 2,2l0 4 -24 0c-2,0 -4,2 -4,4l-9 0c-1,0 -2,-1 -2,-2l0 -6c0,-1 1,-2 2,-2zm0 11l9 0c0,1 0,1 0,2 1,0 1,1 2,2 0,0 1,1 1,1l4 5 -16 0c-1,0 -2,-1 -2,-2l0 -6c0,-1 1,-2 2,-2z"
   id="path9"
   style="fill:#5766da;fill-opacity:1" />
    <path
   class="fil2"
   d="M24 28c0,1 0,9 0,10 0,2 1,2 2,2 5,-4 6,-4 6,-6 0,-1 0,-5 0,-6l8 -10 -24 0 8 10zm18 -15c0,-1 0,-1 -1,-1l-26 0c-2,0 -2,1 -2,2 0,0 0,0 2,2l26 0c1,-2 2,-2 1,-3z"
   id="path11" />
   </g>
  </g>
 </g>
</svg>
