<?xml version="1.0" encoding="UTF-8"?>
<!DOCTYPE svg PUBLIC "-//W3C//DTD SVG 1.1//EN" "http://www.w3.org/Graphics/SVG/1.1/DTD/svg11.dtd">
<!-- Creator: CorelDRAW X7 -->
<svg xmlns="http://www.w3.org/2000/svg" xml:space="preserve" width="35.2228mm" height="35.2228mm" version="1.1" style="shape-rendering:geometricPrecision; text-rendering:geometricPrecision; image-rendering:optimizeQuality; fill-rule:evenodd; clip-rule:evenodd"
viewBox="0 0 512 512"
 xmlns:xlink="http://www.w3.org/1999/xlink">
 <defs>
  <style type="text/css">
   <![CDATA[
    .fil0 {fill:none}
    .fil1 {fill:#00C851}
   ]]>
  </style>
 </defs>
 <g id="Layer_x0020_1">
  <metadata id="CorelCorpID_0Corel-Layer"/>
  <g id="_613755744">
   <rect class="fil0" width="512" height="512"/>
   <path class="fil1" d="M490 256l-52 -60 8 -78 -77 -18 -41 -68 -72 31 -73 -31 -40 68 -77 17 7 79 -52 60 52 59 -7 79 77 18 40 68 73 -32 72 31 41 -68 77 -17 -8 -79 52 -59zm-275 100l-81 -81 32 -31 49 49 125 -125 31 32 -156 156z"/>
  </g>
 </g>
</svg>
