<?xml version="1.0" encoding="UTF-8"?>
<!DOCTYPE svg PUBLIC "-//W3C//DTD SVG 1.1//EN" "http://www.w3.org/Graphics/SVG/1.1/DTD/svg11.dtd">
<!-- Creator: CorelDRAW X7 -->
<svg xmlns="http://www.w3.org/2000/svg" xml:space="preserve" width="256px" height="256px" version="1.1" style="shape-rendering:geometricPrecision; text-rendering:geometricPrecision; image-rendering:optimizeQuality; fill-rule:evenodd; clip-rule:evenodd"
viewBox="0 0 278 278"
 xmlns:xlink="http://www.w3.org/1999/xlink">
 <defs>
  <style type="text/css">
   <![CDATA[
    .fil0 {fill:none}
    .fil2 {fill:#394D6F}
    .fil3 {fill:#415C7D}
    .fil1 {fill:#C9CACA}
    .fil4 {fill:#FEFEFE}
    .fil5 {fill:#4285F4;fill-opacity:0.478431}
   ]]>
  </style>
 </defs>
 <g id="Layer_x0020_1">
  <metadata id="CorelCorpID_0Corel-Layer"/>
  <g id="_748677104">
   <rect class="fil0" width="278" height="278"/>
   <g>
    <path class="fil1" d="M140 35c65,0 118,54 118,119 0,8 0,16 -2,23l16 16c3,3 3,8 0,12l0 0c-4,3 -9,3 -13,0l-17 -18c-3,-3 -8,-3 -10,0l0 0c-3,3 -3,7 0,10l13 13 9 10c5,5 5,14 0,19l0 0c-6,6 -14,6 -20,0l-6 -6c-5,6 -11,12 -17,17l-143 0c-29,-22 -47,-57 -47,-96 0,-15 2,-29 8,-43l-21 -20c-5,-5 -5,-14 0,-20l0 0c6,-5 14,-5 20,0l14 15 0 0c4,3 10,2 13,-1l0 0c4,-4 4,-10 0,-14l0 0 -15 -15c-3,-4 -3,-10 0,-13l0 0c4,-4 10,-4 14,0l15 15 5 5c4,4 10,4 14,0l0 0c4,-4 4,-11 0,-14l-1 -1 -15 -15c-1,-2 -1,-4 0,-5l0 0c1,-2 4,-2 5,0l17 17c14,-6 29,-10 46,-10z"/>
    <path class="fil1" d="M221 27c0,-5 -4,-10 -10,-10 -5,0 -9,5 -9,10 0,5 4,9 9,9 6,0 10,-4 10,-9zm-10 -5c3,0 6,2 6,5 0,3 -3,5 -6,5 -2,0 -5,-2 -5,-5 0,-3 3,-5 5,-5z"/>
    <path class="fil1" d="M138 5l0 0c1,0 2,0 2,1l0 3 3 0c1,0 1,1 1,2l0 0c0,0 0,1 -1,1l-3 0 0 3c0,1 -1,2 -2,2l0 0c0,0 -1,-1 -1,-2l0 -3 -3 0c-1,0 -2,-1 -2,-1l0 0c0,-1 1,-2 2,-2l3 0 0 -3c0,-1 1,-1 1,-1z"/>
   </g>
   <path class="fil2" d="M48 253l179 0c1,0 2,1 2,2l0 0c0,1 -1,2 -2,2l-179 0c-1,0 -2,-1 -2,-2l0 0c0,-1 1,-2 2,-2z"/>
   <path class="fil3" d="M237 253l7 0c1,0 2,1 2,2l0 0c0,1 -1,2 -2,2l-7 0c-1,0 -2,-1 -2,-2l0 0c0,-1 1,-2 2,-2z"/>
   <path class="fil2" d="M82 260l34 0c1,0 2,1 2,3l0 0c0,1 -1,2 -2,2l-34 0c-1,0 -2,-1 -2,-2l0 0c0,-2 1,-3 2,-3z"/>
   <path class="fil2" d="M137 260l37 0c1,0 2,1 2,3l0 0c0,1 -1,2 -2,2l-37 0c-1,0 -2,-1 -2,-2l0 0c0,-2 1,-3 2,-3z"/>
   <path class="fil2" d="M163 269l3 0c1,0 2,1 2,2l0 0c0,1 -1,2 -2,2l-3 0c-1,0 -2,-1 -2,-2l0 0c0,-1 1,-2 2,-2z"/>
   <path class="fil2" d="M126 260c2,0 3,1 3,3 0,2 -1,4 -3,4 -2,0 -3,-2 -3,-4 0,-2 1,-3 3,-3z"/>
   <path class="fil2" d="M205 269l-31 0c-1,0 -2,1 -2,2 0,1 1,2 2,2l32 0 3 0c0,0 0,0 0,0 1,0 1,0 1,-1 0,0 -1,0 -1,-1 0,-1 1,-1 1,-2 1,-1 2,-2 3,-2 2,0 3,1 4,2 0,1 0,1 0,2 0,1 0,1 0,1 0,1 0,1 0,1 1,0 1,0 1,0l3 0 14 0c1,0 2,-1 2,-2 0,-1 -1,-2 -2,-2l-13 0c-1,0 -1,0 -1,-1 -1,-2 -4,-5 -8,-5 -3,0 -6,3 -7,5 0,1 0,1 -1,1z"/>
   <path class="fil4" d="M100 83l58 0 36 35 0 86c0,5 -4,9 -10,9l-84 0c-5,0 -10,-4 -10,-9l0 -111c0,-6 5,-10 10,-10z"/>
   <path class="fil2" d="M194 118l-36 -35 0 25c0,6 5,10 10,10l26 0z"/>
   <path class="fil2" d="M110 123l46 0c1,0 2,1 2,2l0 0c0,1 -1,2 -2,2l-46 0c-1,0 -2,-1 -2,-2l0 0c0,-1 1,-2 2,-2z"/>
   <path class="fil2" d="M110 144l66 0c1,0 2,1 2,2l0 0c0,2 -1,3 -2,3l-66 0c-1,0 -2,-1 -2,-3l0 0c0,-1 1,-2 2,-2z"/>
   <path class="fil2" d="M110 166l66 0c1,0 2,1 2,2l0 0c0,1 -1,2 -2,2l-66 0c-1,0 -2,-1 -2,-2l0 0c0,-1 1,-2 2,-2z"/>
   <path class="fil2" d="M202 228l16 16c3,-3 7,-7 10,-11l-16 -16c3,-4 4,-9 4,-15 0,-16 -13,-30 -30,-30 -17,0 -30,14 -30,30 0,17 13,30 30,30 6,0 11,-1 16,-4zm7 -26c0,13 -10,23 -23,23 -12,0 -23,-10 -23,-23 0,-12 11,-22 23,-22 13,0 23,10 23,22z"/>
   <path class="fil5" d="M186 225c13,0 23,-10 23,-23 0,-10 -6,-18 -15,-21 -2,-1 -5,-1 -8,-1 -12,0 -23,10 -23,22 0,4 1,8 3,11 4,7 11,12 20,12z"/>
   <path class="fil4" d="M209 83l0 0c1,0 2,1 2,2l0 3 3 0c1,0 1,0 1,1l0 0c0,1 0,1 -1,1l-3 0 0 4c0,0 -1,1 -2,1l0 0c0,0 -1,-1 -1,-1l0 -4 -3 0c-1,0 -2,0 -2,-1l0 0c0,-1 1,-1 2,-1l3 0 0 -3c0,-1 1,-2 1,-2z"/>
   <path class="fil4" d="M49 152l0 0c0,0 1,0 1,1l0 4 4 0c0,0 1,0 1,1l0 0c0,1 -1,2 -1,2l-4 0 0 3c0,1 -1,2 -1,2l0 0c-1,0 -2,-1 -2,-2l0 -3 -3 0c-1,0 -2,-1 -2,-2l0 0c0,-1 1,-1 2,-1l3 0 0 -4c0,-1 1,-1 2,-1z"/>
   <path class="fil4" d="M64 106c0,-4 -3,-7 -7,-7 -4,0 -7,3 -7,7 0,4 3,7 7,7 4,0 7,-3 7,-7zm-7 -4c2,0 4,2 4,4 0,2 -2,4 -4,4 -3,0 -4,-2 -4,-4 0,-2 1,-4 4,-4z"/>
   <path class="fil4" d="M151 57c0,-5 -4,-9 -9,-9 -5,0 -10,4 -10,9 0,5 5,9 10,9 5,0 9,-4 9,-9zm-9 -5c3,0 5,2 5,5 0,3 -2,5 -5,5 -3,0 -5,-2 -5,-5 0,-3 2,-5 5,-5z"/>
  </g>
 </g>
</svg>
